<svg width="20" height="20" viewBox="0 0 20 20" fill="none" xmlns="http://www.w3.org/2000/svg">
<rect width="20" height="20" rx="10" fill="#F9ECF0"/>
<path fill-rule="evenodd" clip-rule="evenodd" d="M10.0001 12.7413L9.21801 15.0625C8.90086 16.0022 7.79306 16.3255 7.1377 15.6144C6.99868 15.6501 6.85361 15.6544 6.71276 15.627C6.57192 15.5996 6.43876 15.5411 6.32273 15.4558C6.2067 15.3704 6.11065 15.2603 6.04138 15.1331C5.97212 15.006 5.93134 14.865 5.92195 14.7201C5.05246 14.3087 5.01215 13.1418 5.79876 12.5463L7.73796 11.0769L5.31586 11.0424C4.33439 11.0279 3.68933 10.0606 4.15386 9.2102C4.07756 9.08727 4.02885 8.94887 4.01119 8.80479C3.99353 8.66071 4.00734 8.51445 4.05165 8.37637C4.09596 8.23828 4.16968 8.11173 4.26762 8.00567C4.36555 7.8996 4.48529 7.81661 4.61839 7.76256C4.73621 6.79791 5.81981 6.39926 6.6221 6.97207L8.60162 8.38524L7.88489 6.04234C7.59686 5.09584 8.2997 4.16884 9.24802 4.3575C9.33988 4.24591 9.45485 4.15613 9.58478 4.09452C9.71472 4.03291 9.85644 4.00098 9.99992 4.00098C10.1434 4.00098 10.2851 4.03291 10.4151 4.09452C10.545 4.15613 10.66 4.24591 10.7518 4.3575C11.6992 4.16884 12.4025 5.09584 12.1149 6.04234L11.3982 8.38524L13.3777 6.97161C14.18 6.39881 15.2632 6.79746 15.3814 7.76256C15.5146 7.81649 15.6344 7.89941 15.7324 8.00542C15.8303 8.11143 15.9041 8.23796 15.9484 8.37603C15.9927 8.51411 16.0065 8.66036 15.9888 8.80443C15.9711 8.9485 15.9224 9.08688 15.846 9.20975C16.3105 10.0606 15.6668 11.0275 14.684 11.042L12.2623 11.0769L14.2015 12.5459C14.9872 13.1409 14.9483 14.3083 14.0779 14.7196C14.0685 14.8645 14.0277 15.0055 13.9585 15.1327C13.8892 15.2598 13.7931 15.37 13.6771 15.4553C13.5611 15.5407 13.4279 15.5992 13.2871 15.6266C13.1462 15.654 13.0012 15.6497 12.8621 15.614C12.2077 16.3246 11.099 16.0022 10.7818 15.0616L10.0001 12.7413Z" fill="#D21E6A"/>
<path fill-rule="evenodd" clip-rule="evenodd" d="M10.0002 12.7408V4H10.0428C10.1791 4.00594 10.3126 4.04068 10.4348 4.102C10.557 4.16331 10.6652 4.24984 10.7524 4.35602C11.6859 4.17461 12.4053 5.08891 12.1142 6.04086L11.3974 8.38376L13.3769 6.97013C14.1792 6.39733 15.2619 6.79597 15.3807 7.76107C15.5138 7.81501 15.6336 7.89792 15.7316 8.00393C15.8295 8.10995 15.9033 8.23647 15.9476 8.37455C15.9919 8.51262 16.0057 8.65887 15.988 8.80295C15.9703 8.94702 15.9216 9.08539 15.8452 9.20827C16.3102 10.0591 15.666 11.026 14.6832 11.0405L12.2615 11.0754L14.2007 12.5444C14.9864 13.1394 14.947 14.3068 14.0771 14.7181C14.0677 14.863 14.0269 15.004 13.9577 15.1312C13.8884 15.2583 13.7923 15.3685 13.6763 15.4539C13.5603 15.5392 13.4271 15.5977 13.2863 15.6251C13.1454 15.6525 13.0004 15.6482 12.8613 15.6125C12.2069 16.3236 11.0982 16.0007 10.781 15.0601L10.0002 12.7408Z" fill="#E7629A"/>
<path d="M10.9037 11.2315C11.4031 10.7258 11.4031 9.906 10.9037 9.40035C10.4042 8.89469 9.59445 8.89469 9.095 9.40035C8.59556 9.906 8.59556 10.7258 9.095 11.2315C9.59445 11.7371 10.4042 11.7371 10.9037 11.2315Z" fill="#FFDA44"/>
<path fill-rule="evenodd" clip-rule="evenodd" d="M9.99951 9.021C10.3346 9.02735 10.6539 9.16658 10.8886 9.40875C11.1234 9.65093 11.2549 9.97671 11.2549 10.316C11.2549 10.6554 11.1234 10.9811 10.8886 11.2233C10.6539 11.4655 10.3346 11.6047 9.99951 11.6111V9.021Z" fill="#FFB655"/>
</svg>
